<svg xmlns="http://www.w3.org/2000/svg" width="24" height="24" viewBox="0 0 24 24">
    <path fill="#FFF" fill-rule="evenodd" d="M3.222 2.808l17.677 17.677c.391.39.391 1.024 0 1.414-.39.391-1.023.391-1.414 0l-.9-.9L4 21c-1.05 0-1.918-.82-1.994-1.851L2 19V7c0-.699.363-1.317.91-1.675L1.808 4.222c-.39-.39-.39-1.024 0-1.414.39-.39 1.023-.39 1.414 0zM14.12 3c.498 0 .98.19 1.34.52l.13.13L16.83 5H20c1.05 0 1.918.82 1.994 1.851L22 7v11.585l-5.03-5.03c.012-.112.02-.225.025-.338L17 13c0-2.76-2.24-5-5-5-.187 0-.372.01-.554.03L7.763 4.35 8.4 3.65c.338-.364.802-.595 1.294-.641L9.88 3h4.24zm-6.291 7.243C7.305 11.033 7 11.981 7 13c0 2.76 2.24 5 5 5 1.019 0 1.966-.305 2.757-.829l-1.464-1.464-.199.087c-.339.133-.708.206-1.094.206-1.657 0-3-1.343-3-3 0-.463.105-.901.292-1.293l2.146 2.145-3.61-3.609z"/>
</svg>
