<svg xmlns="http://www.w3.org/2000/svg" xmlns:xlink="http://www.w3.org/1999/xlink" width="24" height="24" viewBox="0 0 24 24">
    <defs>
        <path id="5y5d24gyga" d="M12 10c-1.657 0-3 1.343-3 3s1.343 3 3 3 3-1.343 3-3-1.343-3-3-3zm8-5h-3.17l-1.24-1.35c-.37-.41-.91-.65-1.47-.65H9.88c-.56 0-1.1.24-1.48.65L7.17 5H4c-1.1 0-2 .9-2 2v12c0 1.1.9 2 2 2h16c1.1 0 2-.9 2-2V7c0-1.1-.9-2-2-2zm-8 13c-2.76 0-5-2.24-5-5s2.24-5 5-5 5 2.24 5 5-2.24 5-5 5z"/>
    </defs>
    <g fill="none" fill-rule="evenodd">
        <mask id="8r4knosvob" fill="#fff">
            <use xlink:href="#5y5d24gyga"/>
        </mask>
        <g fill="#FFF" mask="url(#8r4knosvob)">
            <path d="M0 0H24V24H0z"/>
        </g>
    </g>
</svg>
